<?xml version="1.0" encoding="utf-8"?>
<!-- Generator: Adobe Illustrator 22.0.1, SVG Export Plug-In . SVG Version: 6.00 Build 0)  -->
<svg version="1.1" id="레이어_1" xmlns="http://www.w3.org/2000/svg" xmlns:xlink="http://www.w3.org/1999/xlink" x="0px"
	 y="0px" viewBox="0 0 173 50" style="enable-background:new 0 0 173 50;" xml:space="preserve">
<style type="text/css">
	.st0{fill:#D83D54;}
	.st1{fill:url(#SVGID_1_);}
	.st2{fill:url(#SVGID_2_);}
	.st3{fill:url(#SVGID_3_);}
	.st4{fill:url(#SVGID_4_);}
	.st5{fill:url(#SVGID_5_);}
	.st6{fill:url(#SVGID_6_);}
	.st7{fill:url(#SVGID_7_);}
	.st8{fill:url(#SVGID_8_);}
</style>
<path class="st0" d="M50.1,26.9c-0.9-0.5-1.7-1.2-2.5-2.1c-0.6-0.7-1.1-1.3-1.4-1.8c-0.1-0.2-0.4-0.2-0.5,0
	c-0.4,0.7-0.9,1.4-1.5,2.2c-0.9,1-1.7,1.7-2.5,2.2l-1-1c1.3-0.6,2.4-1.6,3.3-2.9c0.9-1.3,1.3-2.6,1.3-3.9V19h-4v-1.3h9.2V19h-3.9
	v0.7c0,1.2,0.5,2.4,1.4,3.6s2,2.1,3.1,2.6L50.1,26.9z M44.4,34.2c-0.2,0-0.3-0.2-0.3-0.3v-5.5h1.4v4.3c0,0.2,0.2,0.3,0.3,0.3h9.8
	v1.2H44.4z M53.7,29.6v-6.6c0-0.2-0.2-0.3-0.3-0.3h-3.9v-1.2h3.9c0.2,0,0.3-0.2,0.3-0.3v-4.2h1.4v12.8H53.7z"/>
<path class="st0" d="M72,34.8v-3.7c0-0.6-0.5-1-1-1h-9.1v-1.2h5.2v-2.2h-7.6v-1.3h16.7v1.3h-7.6v2.2h3.9c0.6,0,1,0.5,1,1v4.9H72z
	 M63.3,23.6c-0.6,0-1-0.5-1-1v-5.5h1.4v2.2h8.3v-2.2h1.4v5.5c0,0.6-0.5,1-1,1H63.3z M71.9,20.5h-8.3v1.9h8.3V20.5z"/>
<path class="st0" d="M93,34.8v-3.9c0-0.6-0.5-1-1-1h-9.1v-1.2h5.3v-2.2h-7.6v-1.3h16.7v1.3h-7.6v2.2h3.9c0.6,0,1,0.5,1,1v5.1H93z
	 M95.5,23.8c-1.3-0.1-2.7-0.5-4.1-1.2c-0.9-0.4-1.5-0.8-2-1.2c-0.4-0.3-0.9-0.3-1.3,0c-0.5,0.4-1.2,0.8-2,1.2c-1.3,0.6-2.7,1-4,1.1
	l-0.8-1.3c1.3,0,2.7-0.3,4-0.9c1.4-0.6,2.2-1.3,2.6-2.1h-5.5v-1.2h5.7v-1.7h1.4v1.7h5.7v1.2h-5.5c0.4,0.8,1.2,1.5,2.6,2.1
	c1.4,0.6,2.7,0.8,4,0.8L95.5,23.8z"/>
<path class="st0" d="M107.6,30.6c-1.6-1.6-2.7-3.5-3.4-5.6c-0.2,0.9-0.7,1.9-1.4,3c-0.7,1.1-1.4,2.1-2.2,2.8l-1.1-0.9
	c1.1-0.7,2-1.9,2.8-3.5c0.8-1.6,1.2-3.2,1.2-4.7v-2.1h-3.4v-1.2h8.1v1.2H105v2.1c0,1.5,0.4,3,1.1,4.5c0.7,1.5,1.6,2.7,2.6,3.5
	L107.6,30.6z M110.1,34.2v-9c0-0.6-0.5-1-1-1H107V23h2.1c0.6,0,1-0.5,1-1v-4.8h1.4v17H110.1z M113.3,34.8v-18h1.4v18H113.3z"/>
<path class="st0" d="M131.7,34c-2.2,0-4.1-0.8-5.5-2.3c-1.4-1.5-2.1-3.6-2.1-6c0-2.6,0.7-4.7,2.1-6.3c1.4-1.6,3.3-2.4,5.7-2.4
	c2.2,0,4,0.8,5.4,2.3c1.4,1.5,2.1,3.6,2.1,6.1c0,2.6-0.7,4.7-2.1,6.3C135.8,33.2,134,34,131.7,34z M131.8,20.1
	c-1.2,0-2.2,0.5-2.9,1.5c-0.7,1-1.1,2.3-1.1,3.9c0,1.6,0.4,2.9,1.1,3.9s1.7,1.4,2.9,1.4c1.2,0,2.2-0.5,2.9-1.4
	c0.7-0.9,1.1-2.2,1.1-3.9c0-1.7-0.3-3.1-1-4C134,20.6,133,20.1,131.8,20.1z"/>
<path class="st0" d="M141.8,28.6c0-5,2.2-7.5,6.6-7.5c4.2,0,6.4,2.4,6.4,7.3V34h-3.5v-5.7c0-2.7-1-4-3-4c-1.9,0-2.9,1.3-2.9,3.9V34
	h-3.5V28.6z"/>
<path class="st0" d="M160,34c-0.6,0-1.1-0.2-1.4-0.6c-0.4-0.4-0.6-0.8-0.6-1.4c0-0.6,0.2-1,0.6-1.4s0.9-0.5,1.4-0.5
	c0.6,0,1.1,0.2,1.4,0.5s0.6,0.8,0.6,1.4c0,0.6-0.2,1-0.6,1.4S160.6,34,160,34z M161.8,17.2l-0.4,11.4h-2.8l-0.4-11.4H161.8z"/>
<g>
	<linearGradient id="SVGID_1_" gradientUnits="userSpaceOnUse" x1="22.5085" y1="12.5245" x2="21.4066" y2="21.235">
		<stop  offset="0" style="stop-color:#FF3F45"/>
		<stop  offset="0.2487" style="stop-color:#FB3B44"/>
		<stop  offset="0.5" style="stop-color:#EF2F40"/>
		<stop  offset="0.7516" style="stop-color:#DB1B39"/>
		<stop  offset="1" style="stop-color:#BF0030"/>
	</linearGradient>
	<path class="st1" d="M22.2,12.6c0,0-3.9,1.7-2.2,5.6s0.6,5.6,0.6,5.6s3.9-4.5,3.9-7.3S22.2,12.6,22.2,12.6z"/>
	
		<linearGradient id="SVGID_2_" gradientUnits="userSpaceOnUse" x1="28.5085" y1="34.5245" x2="27.4066" y2="43.235" gradientTransform="matrix(-1 0 0 -1 46.2526 71)">
		<stop  offset="0" style="stop-color:#FF3F45"/>
		<stop  offset="0.2487" style="stop-color:#FB3B44"/>
		<stop  offset="0.5" style="stop-color:#EF2F40"/>
		<stop  offset="0.7516" style="stop-color:#DB1B39"/>
		<stop  offset="1" style="stop-color:#BF0030"/>
	</linearGradient>
	<path class="st2" d="M18,36.4c0,0,3.9-1.7,2.2-5.6s-0.6-5.6-0.6-5.6s-3.9,4.5-3.9,7.3S18,36.4,18,36.4z"/>
</g>
<g>
	
		<linearGradient id="SVGID_3_" gradientUnits="userSpaceOnUse" x1="20.3872" y1="11.6458" x2="19.2853" y2="20.3564" gradientTransform="matrix(0.7071 -0.7071 0.7071 0.7071 -9.3079 20.5286)">
		<stop  offset="0" style="stop-color:#FF3F45"/>
		<stop  offset="0.2487" style="stop-color:#FB3B44"/>
		<stop  offset="0.5" style="stop-color:#EF2F40"/>
		<stop  offset="0.7516" style="stop-color:#DB1B39"/>
		<stop  offset="1" style="stop-color:#BF0030"/>
	</linearGradient>
	<path class="st3" d="M13.2,14.6c0,0-1.6,3.9,2.4,5.5c3.9,1.6,4.3,3.5,4.3,3.5s-0.4-5.9-2.4-7.9S13.2,14.6,13.2,14.6z"/>
	
		<linearGradient id="SVGID_4_" gradientUnits="userSpaceOnUse" x1="30.6298" y1="35.4032" x2="29.5279" y2="44.1137" gradientTransform="matrix(-0.7071 0.7071 -0.7071 -0.7071 73.6022 38.0277)">
		<stop  offset="0" style="stop-color:#FF3F45"/>
		<stop  offset="0.2487" style="stop-color:#FB3B44"/>
		<stop  offset="0.5" style="stop-color:#EF2F40"/>
		<stop  offset="0.7516" style="stop-color:#DB1B39"/>
		<stop  offset="1" style="stop-color:#BF0030"/>
	</linearGradient>
	<path class="st4" d="M27,34.4c0,0,1.6-3.9-2.4-5.5c-3.9-1.6-4.3-3.5-4.3-3.5s0.4,5.9,2.4,7.9C24.7,35.2,27,34.4,27,34.4z"/>
</g>
<g>
	
		<linearGradient id="SVGID_5_" gradientUnits="userSpaceOnUse" x1="19.5085" y1="9.5245" x2="18.4066" y2="18.235" gradientTransform="matrix(4.489659e-11 -1 1 4.489659e-11 -1.3737 41.6263)">
		<stop  offset="0" style="stop-color:#FF3F45"/>
		<stop  offset="0.2487" style="stop-color:#FB3B44"/>
		<stop  offset="0.5" style="stop-color:#EF2F40"/>
		<stop  offset="0.7516" style="stop-color:#DB1B39"/>
		<stop  offset="1" style="stop-color:#BF0030"/>
	</linearGradient>
	<path class="st5" d="M8.3,22.4c0,0,1.7,3.9,5.6,2.2s5.6-0.6,5.6-0.6s-4.5-3.9-7.3-3.9S8.3,22.4,8.3,22.4z"/>
	
		<linearGradient id="SVGID_6_" gradientUnits="userSpaceOnUse" x1="31.5085" y1="37.5245" x2="30.4066" y2="46.235" gradientTransform="matrix(-4.489659e-11 1 -1 -4.489659e-11 69.6263 -4.6263)">
		<stop  offset="0" style="stop-color:#FF3F45"/>
		<stop  offset="0.2487" style="stop-color:#FB3B44"/>
		<stop  offset="0.5" style="stop-color:#EF2F40"/>
		<stop  offset="0.7516" style="stop-color:#DB1B39"/>
		<stop  offset="1" style="stop-color:#BF0030"/>
	</linearGradient>
	<path class="st6" d="M32,26.6c0,0-1.7-3.9-5.6-2.2s-5.6,0.6-5.6,0.6s4.5,3.9,7.3,3.9S32,26.6,32,26.6z"/>
</g>
<g>
	
		<linearGradient id="SVGID_7_" gradientUnits="userSpaceOnUse" x1="20.3872" y1="7.4032" x2="19.2853" y2="16.1137" gradientTransform="matrix(-0.7071 -0.7071 0.7071 -0.7071 19.1549 50.9342)">
		<stop  offset="0" style="stop-color:#FF3F45"/>
		<stop  offset="0.2487" style="stop-color:#FB3B44"/>
		<stop  offset="0.5" style="stop-color:#EF2F40"/>
		<stop  offset="0.7516" style="stop-color:#DB1B39"/>
		<stop  offset="1" style="stop-color:#BF0030"/>
	</linearGradient>
	<path class="st7" d="M10.2,31.4c0,0,3.9,1.6,5.5-2.4s3.5-4.3,3.5-4.3s-5.9,0.4-7.9,2.4S10.2,31.4,10.2,31.4z"/>
	
		<linearGradient id="SVGID_8_" gradientUnits="userSpaceOnUse" x1="30.6298" y1="39.6458" x2="29.5279" y2="48.3564" gradientTransform="matrix(0.7071 0.7071 -0.7071 0.7071 36.654 -31.9759)">
		<stop  offset="0" style="stop-color:#FF3F45"/>
		<stop  offset="0.2487" style="stop-color:#FB3B44"/>
		<stop  offset="0.5" style="stop-color:#EF2F40"/>
		<stop  offset="0.7516" style="stop-color:#DB1B39"/>
		<stop  offset="1" style="stop-color:#BF0030"/>
	</linearGradient>
	<path class="st8" d="M30,17.6c0,0-3.9-1.6-5.5,2.4c-1.6,3.9-3.5,4.3-3.5,4.3s5.9-0.4,7.9-2.4S30,17.6,30,17.6z"/>
</g>
</svg>
